<svg width="34" height="29" viewBox="0 0 34 29" fill="none" xmlns="http://www.w3.org/2000/svg">
<g clip-path="url(#clip0_457_2812)">
<path d="M29.8808 7.3609C29.61 7.12992 29.1712 7.12992 28.9002 7.3609L28.8938 7.3664C28.623 7.59738 28.623 7.97183 28.8938 8.20287C29.0292 8.31836 29.2066 8.37607 29.3841 8.37607C29.5615 8.37607 29.7389 8.31836 29.8744 8.20287L29.8808 8.19737C30.1516 7.96645 30.1516 7.59194 29.8808 7.3609Z" fill="black"/>
<path d="M12.1822 14.7617C11.9113 14.5307 11.4724 14.5307 11.2015 14.7617L11.195 14.7672C10.9242 14.9982 10.9242 15.3726 11.195 15.6036C11.3304 15.7191 11.5079 15.7768 11.6854 15.7768C11.8628 15.7768 12.0403 15.7191 12.1758 15.6036L12.1822 15.5981C12.453 15.3672 12.453 14.9927 12.1822 14.7617Z" fill="black"/>
<path d="M21.5039 14.1902L21.4974 14.1847C21.2266 13.9537 20.7877 13.9537 20.5168 14.1847C20.246 14.4157 20.246 14.7901 20.5168 15.0211L20.5233 15.0266C20.6587 15.1421 20.8361 15.1998 21.0135 15.1998C21.191 15.1998 21.3684 15.1421 21.5039 15.0266C21.7746 14.7957 21.7746 14.4212 21.5039 14.1902Z" fill="black"/>
<path d="M33.7969 0.173205C33.526 -0.0577756 33.0871 -0.0577756 32.8162 0.173205L29.3458 3.13324C27.8331 2.23872 25.7359 2.3648 24.3893 3.51336C23.7172 4.08662 23.3442 4.81949 23.2688 5.57026L22.7 5.08514C22.4291 4.85416 21.9903 4.85416 21.7193 5.08514L16.274 9.72967L14.9335 8.58626C14.6626 8.35528 14.2237 8.35528 13.9528 8.58626L11.2064 10.9288C11.0763 11.0397 11.0033 11.1901 11.0033 11.347C11.0033 11.5038 11.0764 11.6543 11.2064 11.7652L13.6044 13.8105C13.549 13.8146 13.4936 13.8187 13.4381 13.8248C13.0584 13.8669 12.7905 14.1637 12.8399 14.4876C12.8892 14.8115 13.2371 15.0401 13.6169 14.9978C14.3927 14.9119 15.1541 15.1326 15.7061 15.6036C16.6794 16.4338 16.6794 17.7846 15.7061 18.6148C14.733 19.4449 13.1491 19.445 12.1758 18.6148C11.6098 18.1321 11.3536 17.4676 11.4724 16.7913C11.5291 16.4683 11.2682 16.1672 10.8894 16.1187C10.5113 16.0705 10.1577 16.2928 10.1008 16.6159C10.0885 16.6859 10.0794 16.7561 10.0725 16.8262L8.82157 15.7593C8.69148 15.6484 8.51517 15.5861 8.3313 15.5861C8.14742 15.5861 7.97104 15.6484 7.84102 15.7593L5.11996 18.0802C4.84915 18.3112 4.84915 18.6857 5.11996 18.9167L7.98173 21.3576C7.97376 21.3639 7.96546 21.3696 7.95769 21.3762L0.203104 27.9903C-0.0677012 28.2212 -0.0677012 28.5957 0.203104 28.8267C0.338572 28.9423 0.51601 29 0.693447 29C0.870885 29 1.04832 28.9423 1.18372 28.8268L8.93832 22.2126C8.94602 22.2061 8.95273 22.199 8.96003 22.1922L11.8934 24.6942C12.0235 24.8051 12.1998 24.8674 12.3837 24.8674C12.5675 24.8674 12.7439 24.805 12.874 24.6942L15.5951 22.3732C15.7252 22.2623 15.7982 22.1119 15.7982 21.955C15.7982 21.7981 15.7251 21.6476 15.5951 21.5368L14.2708 20.4073C15.1525 20.3437 16.0134 20.0255 16.6867 19.4513C17.3584 18.8783 17.7314 18.1457 17.8071 17.3954L20.2779 19.5028C20.408 19.6137 20.5843 19.676 20.7683 19.676C20.9522 19.676 21.1285 19.6137 21.2585 19.5028L24.0049 17.1602C24.1349 17.0493 24.208 16.8989 24.208 16.7421C24.208 16.5852 24.1349 16.4347 24.0049 16.3238L23.0411 15.5017C22.7702 15.2708 22.3313 15.2708 22.0604 15.5017C21.7896 15.7327 21.7896 16.1072 22.0604 16.3382L22.5339 16.7421L20.7682 18.2482L12.6773 11.347L14.4431 9.84085L15.7834 10.984C15.7835 10.9841 15.7836 10.9841 15.7837 10.9843C15.7837 10.9844 15.7839 10.9844 15.784 10.9845L18.9303 13.6682C19.2012 13.8992 19.6401 13.8991 19.911 13.6682C20.1818 13.4372 20.1818 13.0627 19.911 12.8317L17.2546 10.566L22.2096 6.33973L26.567 10.0564L22.4953 13.5293C22.2245 13.7603 22.2245 14.1348 22.4953 14.3658C22.6307 14.4813 22.8081 14.539 22.9856 14.539C23.1631 14.539 23.3405 14.4813 23.4759 14.3658L28.038 10.4746C28.3088 10.2436 28.3088 9.86917 28.038 9.63814L27.4712 9.15471C27.5267 9.15057 27.5822 9.14576 27.6377 9.13964C28.0175 9.09756 28.2854 8.80082 28.236 8.47689C28.1866 8.15296 27.8389 7.92442 27.459 7.96667C26.6833 8.0526 25.9218 7.83187 25.3697 7.3609C24.3965 6.53072 24.3965 5.1799 25.3697 4.34971C26.3429 3.51959 27.9267 3.51953 28.9001 4.34971C29.4659 4.83241 29.7223 5.49697 29.6035 6.1732C29.5468 6.49622 29.8077 6.79738 30.1865 6.84587C30.5648 6.89429 30.9183 6.6717 30.975 6.34862C31.1223 5.51073 30.8824 4.65716 30.3262 3.96983L33.7967 1.00967C34.0677 0.778693 34.0677 0.404185 33.7969 0.173205ZM12.3837 23.4396L6.59079 18.4985L8.3313 17.014L14.1242 21.955L12.3837 23.4396Z" fill="black"/>
</g>
<defs>
<clipPath id="clip0_457_2812">
<rect width="34" height="29" fill="white"/>
</clipPath>
</defs>
</svg>
