<svg width="34" height="27" viewBox="0 0 34 27" fill="none" xmlns="http://www.w3.org/2000/svg">
<path d="M33.8204 15.1122C33.5671 14.7211 33.1031 14.4876 32.5794 14.4876H31.3662L31.2148 13.8421C31.0714 13.2305 30.6334 12.6901 30.0133 12.3594L29.4389 12.053C29.4254 12.0459 29.4157 12.0341 29.4123 12.0209L29.3353 11.7234C29.3202 11.6656 29.3016 11.6066 29.2766 11.5379C29.1946 11.313 28.9145 11.1873 28.6507 11.2573C28.387 11.3272 28.2397 11.5662 28.3217 11.7911C28.3383 11.8365 28.3501 11.8735 28.3589 11.9075L28.4359 12.2048C28.4969 12.4402 28.6692 12.6484 28.9088 12.7762L29.4833 13.0825C29.8709 13.2893 30.1447 13.6271 30.2343 14.0094L30.3465 14.4875H8.04268C7.7665 14.4875 7.54272 14.6785 7.54272 14.914C7.54272 15.1495 7.7665 15.3404 8.04268 15.3404H32.5794C32.8019 15.3404 32.9093 15.4691 32.9451 15.5245C32.9809 15.5798 33.0515 15.7259 32.933 15.8866L32.0993 17.0173C32.01 17.1384 31.9484 17.2711 31.9163 17.4115L31.6515 18.5671C31.5986 18.7982 31.7754 19.0222 32.0464 19.0674C32.0788 19.0728 32.111 19.0754 32.1428 19.0754C32.3771 19.0754 32.5863 18.9342 32.633 18.7307L32.8976 17.5751C32.9062 17.5381 32.9224 17.5031 32.9458 17.4713L33.7795 16.3408C34.0583 15.9625 34.0736 15.5032 33.8204 15.1122Z" fill="black"/>
<path d="M31.8217 20.0477C31.5507 20.0024 31.288 20.1533 31.2352 20.3845L31.116 20.9052C30.4938 23.6209 27.6877 25.5919 24.4436 25.5919H9.55632C6.31223 25.5919 3.5061 23.6208 2.88396 20.9052L2.08364 17.4115C2.05151 17.2711 1.98992 17.1385 1.90059 17.0173L1.06694 15.8866C0.948483 15.726 1.01901 15.5799 1.05487 15.5246C1.09067 15.4692 1.19806 15.3405 1.42057 15.3405H5.91194C6.18811 15.3405 6.41189 15.1496 6.41189 14.914C6.41189 14.6785 6.18811 14.4876 5.91194 14.4876H3.72022L3.83241 14.0094C3.92206 13.6271 4.19577 13.2893 4.58347 13.0826L5.08049 12.8176C5.36932 12.6636 5.5771 12.4126 5.65056 12.1288L5.70783 11.9075C5.81921 11.4775 6.16518 11.1101 6.63347 10.9245L7.50725 10.5782C7.61944 10.5338 7.70837 10.4554 7.7567 10.3583C7.98027 9.9097 8.45016 9.59346 9.01377 9.51238L9.4616 9.44796C9.74884 9.40657 10.0061 9.26431 10.1676 9.05769L10.4592 8.68465C10.7047 8.37046 11.0949 8.14911 11.5296 8.0773L12.2063 7.96558C12.4873 7.91918 12.7304 7.78233 12.8909 7.58008L12.9835 7.46341C13.2941 7.07212 13.8102 6.83849 14.3642 6.83849H14.7974C15.0757 6.83849 15.3373 6.7461 15.534 6.57826L15.6598 6.47103C15.9747 6.20238 16.3934 6.05449 16.8388 6.05449H17.2279C17.6733 6.05449 18.092 6.20243 18.4069 6.47108L18.5343 6.57974C18.7301 6.74661 18.9902 6.83849 19.2669 6.83849H19.7024C20.2564 6.83849 20.7725 7.07206 21.083 7.4633L21.1738 7.57775C21.3357 7.78147 21.5807 7.91941 21.8638 7.96614L22.5371 8.0773C22.9718 8.14905 23.3619 8.37046 23.6075 8.68471L23.8531 8.9989C24.0439 9.24293 24.3477 9.41089 24.6867 9.45967L25.0529 9.51238C25.6165 9.59346 26.0865 9.9097 26.31 10.3583C26.3584 10.4554 26.4473 10.5338 26.5594 10.5782L27.0666 10.7792C27.3171 10.8785 27.6143 10.7858 27.7306 10.5721C27.847 10.3585 27.7382 10.1049 27.4879 10.0057L27.1449 9.86984C26.7611 9.23469 26.0544 8.7916 25.2191 8.6714L24.8529 8.6187C24.7847 8.60886 24.7235 8.57503 24.685 8.52585L24.6425 8.47155C25.6527 8.29586 26.4152 7.53272 26.4152 6.61999C26.4152 5.57774 25.4211 4.72983 24.1992 4.72983C22.9772 4.72983 21.9831 5.57774 21.9831 6.61999C21.9831 6.79716 22.0129 6.96836 22.0667 7.13103L22.0537 7.12886C22.0323 7.12534 22.0138 7.11493 22.0018 7.0997L21.911 6.9853C21.4142 6.35942 20.5885 5.98569 19.7023 5.98569H19.2668C19.2571 5.98569 19.2481 5.98245 19.2412 5.97659L19.1139 5.868C18.6101 5.43827 17.9403 5.20163 17.2278 5.20163H16.8387C16.1262 5.20163 15.4565 5.43827 14.9527 5.86794L14.8269 5.97517C14.8191 5.98194 14.8085 5.98564 14.7974 5.98564H14.475C14.1917 5.72722 13.8704 5.50963 13.5268 5.34514L13.4363 4.47403C13.4142 4.26047 13.2959 4.0671 13.1031 3.92945C13.0483 3.89033 12.9889 3.85769 12.9268 3.83052L12.8162 2.76575C13.3991 2.48732 13.7536 1.93825 13.6922 1.34716C13.6079 0.535751 12.7651 -0.0664812 11.8139 0.00589813C11.5649 0.0247179 11.3276 0.0878863 11.1142 0.191253C10.8826 0.121546 10.6364 0.0948797 10.3871 0.113756C9.92629 0.148553 9.50886 0.33442 9.21182 0.637014C8.91485 0.939608 8.77373 1.32277 8.81459 1.71582C8.87559 2.30305 9.33434 2.78946 9.96115 2.97834L10.0721 4.04635C10.0165 4.08239 9.96482 4.12339 9.91895 4.17013C9.75764 4.3345 9.68098 4.5426 9.70317 4.75615L9.77637 5.46062C9.10083 5.26434 8.3959 5.20601 7.73276 5.30562L7.0161 4.68036C6.84038 4.52708 6.60527 4.44128 6.3539 4.43889C6.28284 4.43849 6.21284 4.44549 6.14458 4.45805L5.2678 3.69321C5.51231 3.16284 5.37899 2.54651 4.89264 2.12213C4.2249 1.53962 3.12614 1.52905 2.44321 2.09847C2.26436 2.24755 2.12777 2.42455 2.03918 2.61985C1.80827 2.69093 1.59769 2.80345 1.41884 2.95258C0.735904 3.52207 0.723438 4.4593 1.39111 5.04186C1.87419 5.4634 2.59039 5.59213 3.21573 5.39972L4.09445 6.16638C4.07825 6.22432 4.06865 6.28397 4.06785 6.34497C4.06505 6.55933 4.16024 6.76185 4.33589 6.91508L5.05242 7.54028C4.83511 8.46399 5.11008 9.49089 5.79528 10.3584C5.26054 10.6828 4.87457 11.1707 4.73139 11.7237L4.67413 11.945C4.65819 12.0065 4.61306 12.0609 4.5504 12.0944L4.05338 12.3594C3.43324 12.6901 2.99529 13.2306 2.8519 13.8421L2.70045 14.4877H1.42064C0.896888 14.4877 0.432933 14.7211 0.179624 15.1123C-0.0736186 15.5033 -0.0582867 15.9626 0.220553 16.3408L1.05414 17.4713C1.07767 17.5032 1.09387 17.5381 1.1024 17.5751L1.90272 21.0688C2.61626 24.1839 5.83508 26.4449 9.55632 26.4449H24.4437C28.1649 26.4449 31.3838 24.1839 32.0974 21.0688L32.2166 20.548C32.2695 20.3169 32.0928 20.0928 31.8217 20.0477ZM24.1992 5.58269C24.8698 5.58269 25.4154 6.04801 25.4154 6.61999C25.4154 7.19198 24.8698 7.65735 24.1992 7.65735C23.5287 7.65735 22.9831 7.19198 22.9831 6.61999C22.9831 6.04801 23.5286 5.58269 24.1992 5.58269ZM9.81056 1.6406C9.7933 1.47446 9.85296 1.31248 9.97855 1.18455C10.1041 1.05662 10.2805 0.978101 10.4754 0.963375C10.4973 0.961726 10.5191 0.96093 10.5409 0.96093C10.6709 0.96093 10.7977 0.990382 10.9109 1.0473C11.0952 1.14009 11.3284 1.1224 11.4906 1.00352C11.6069 0.918287 11.7492 0.867172 11.9021 0.855573C12.3043 0.825382 12.6606 1.07959 12.6962 1.42255C12.7276 1.7256 12.5008 2.00238 12.1569 2.08068C11.9222 2.13412 11.7665 2.32386 11.7879 2.5303L11.918 3.78316L11.6603 3.80266L11.0552 3.84837L10.9251 2.59438C10.9037 2.38896 10.7131 2.226 10.4724 2.2073C10.1201 2.17995 9.84183 1.94166 9.81056 1.6406ZM10.814 5.78732L10.7043 4.73108L12.4455 4.59951L12.5552 5.65569C12.5711 5.80881 12.6824 5.94277 12.8465 6.00633C12.9817 6.0587 13.1136 6.12317 13.241 6.19743C12.8179 6.36499 12.4481 6.62687 12.174 6.96358C12.0374 6.80745 11.8896 6.65797 11.7293 6.5181C11.4485 6.27305 11.1386 6.06086 10.8103 5.8838C10.8154 5.85213 10.8174 5.8199 10.814 5.78732ZM3.31899 4.45356C3.22193 4.45356 3.12421 4.47761 3.03895 4.52685C2.74604 4.69588 2.35375 4.66177 2.10617 4.44571C1.82393 4.19941 1.8292 3.80323 2.11784 3.56249C2.22763 3.47095 2.36581 3.41205 2.51727 3.39215C2.72878 3.36434 2.8961 3.22487 2.93343 3.04515C2.96016 2.91637 3.03235 2.79992 3.14214 2.70844C3.43091 2.4677 3.89533 2.47214 4.17757 2.71845C4.42688 2.93598 4.45688 3.27269 4.24883 3.51905C4.10685 3.68724 4.12718 3.91813 4.29703 4.06636L5.32786 4.96567L5.30413 4.98552L4.70852 5.48216L3.67675 4.58194C3.57963 4.49723 3.44984 4.45356 3.31899 4.45356ZM6.34223 5.31256L7.21121 6.07075C7.3372 6.18071 7.52278 6.22432 7.69697 6.18481C8.78313 5.93907 10.0854 6.30381 11.0142 7.1142C11.0723 7.16486 11.1277 7.21745 11.182 7.27089C10.5505 7.41019 9.99015 7.7473 9.62731 8.2116L9.33568 8.58464C9.32641 8.59646 9.31174 8.60465 9.29528 8.60698L8.84752 8.6714C8.01234 8.7916 7.3056 9.23469 6.92178 9.8699L6.6902 9.96166C6.05599 9.20722 5.82228 8.30029 6.08406 7.52988C6.13418 7.38228 6.08732 7.22302 5.96133 7.11312L5.09228 6.35487L6.34223 5.31256Z" fill="black"/>
<path d="M9.99854 12.0774C9.99854 12.886 10.9426 13.5194 12.1478 13.5194C13.353 13.5194 14.2971 12.886 14.2971 12.0774C14.2971 11.2688 13.353 10.6354 12.1478 10.6354C10.9426 10.6354 9.99854 11.2688 9.99854 12.0774ZM13.2972 12.0774C13.2972 12.356 12.8252 12.6665 12.1479 12.6665C11.4705 12.6665 10.9985 12.356 10.9985 12.0774C10.9985 11.7987 11.4705 11.4882 12.1479 11.4882C12.8252 11.4882 13.2972 11.7988 13.2972 12.0774Z" fill="black"/>
<path d="M15.2258 8.23862H14.8686C14.5924 8.23862 14.3687 8.42954 14.3687 8.66505C14.3687 8.90055 14.5924 9.09148 14.8686 9.09148H15.2258C15.5019 9.09148 15.7257 8.90055 15.7257 8.66505C15.7257 8.42954 15.5019 8.23862 15.2258 8.23862Z" fill="black"/>
<path d="M16.226 11.2651C15.9499 11.2651 15.7261 11.456 15.7261 11.6915C15.7261 11.927 15.9499 12.1179 16.226 12.1179H16.6071C16.8832 12.1179 17.107 11.927 17.107 11.6915C17.107 11.456 16.8832 11.2651 16.6071 11.2651H16.226Z" fill="black"/>
<path d="M21.6794 9.29483C20.3532 9.29483 19.2744 10.0875 19.2744 11.0618C19.2744 12.0362 20.3533 12.8289 21.6794 12.8289C23.0056 12.8289 24.0845 12.0362 24.0845 11.0618C24.0845 10.0875 23.0057 9.29483 21.6794 9.29483ZM21.6794 11.9759C20.9047 11.9759 20.2743 11.5659 20.2743 11.0618C20.2743 10.5577 20.9047 10.1476 21.6794 10.1476C22.4542 10.1476 23.0846 10.5577 23.0846 11.0618C23.0846 11.5659 22.4542 11.9759 21.6794 11.9759Z" fill="black"/>
</svg>
