<svg width="34" height="29" viewBox="0 0 34 29" fill="none" xmlns="http://www.w3.org/2000/svg">
<g clip-path="url(#clip0_453_2800)">
<path d="M34 18.7841C34 17.9273 33.2273 17.2682 32.3 17.1364C32.3773 16.9386 32.4545 16.675 32.4545 16.4773C32.4545 16.1477 32.3 15.8182 32.1455 15.4886C32.7636 15.1591 33.2273 14.5659 33.2273 13.8409C33.2273 13.5114 33.15 13.2477 32.9955 12.9841C33.6136 12.7205 34 12.1932 34 11.5341C34 10.6773 33.2273 10.0182 32.3 9.88636C32.3773 9.68863 32.4545 9.425 32.4545 9.22727C32.4545 4.48182 27.9727 0.659088 22.4091 0.659088H11.5909C6.02727 0.659088 1.54545 4.48182 1.54545 9.22727C1.54545 9.49091 1.62273 9.68863 1.7 9.88636C0.772727 10.0182 0 10.6773 0 11.5341C0 12.1273 0.386364 12.7205 1.00455 12.9841C0.85 13.2477 0.772727 13.5114 0.772727 13.8409C0.772727 14.5659 1.23636 15.1591 1.85455 15.4886C1.7 15.8182 1.54545 16.1477 1.54545 16.4773C1.54545 16.7409 1.62273 16.9386 1.7 17.1364C0.772727 17.2682 0 17.9273 0 18.7841C0 19.2455 0.231818 19.7068 0.618182 19.9705C0.231818 20.3659 0 20.8932 0 21.4205C0 22.4091 0.695454 23.2659 1.77727 23.5955C1.62273 23.7932 1.54545 24.1227 1.54545 24.3864C1.54545 26.5614 3.63182 28.3409 6.18182 28.3409H27.8182C30.3682 28.3409 32.4545 26.5614 32.4545 24.3864C32.4545 24.1227 32.3773 23.7932 32.2227 23.5955C33.2273 23.2659 34 22.4091 34 21.4205C34 20.8932 33.7682 20.3659 33.3818 19.9705C33.7682 19.7068 34 19.2455 34 18.7841ZM3.09091 16.4773C3.09091 16.0818 3.4 15.8182 3.86364 15.8182H8.5V16.8068C8.5 16.9386 8.5 17.0045 8.5 17.1364H3.86364C3.4 17.1364 3.09091 16.8727 3.09091 16.4773ZM3.09091 14.5C2.62727 14.5 2.31818 14.2364 2.31818 13.8409C2.31818 13.4455 2.62727 13.1818 3.09091 13.1818H30.9091C31.3727 13.1818 31.6818 13.4455 31.6818 13.8409C31.6818 14.2364 31.3727 14.5 30.9091 14.5H30.1364H27.0455H23.9545H17H15.7636C14.9136 14.5 14.0636 14.7636 13.3682 15.225L10.6636 17.0705C10.4318 17.2023 10.0455 17.0705 10.0455 16.8068V15.8182C10.0455 15.0932 9.35 14.5 8.5 14.5H3.86364H3.09091ZM14.2955 16.2795C14.3727 16.2136 14.45 16.2136 14.5273 16.1477C14.6045 16.2795 14.6818 16.3455 14.6818 16.4773C14.6818 16.8727 14.3727 17.1364 13.9091 17.1364H13.0591L14.2955 16.2795ZM16.2273 16.4773C16.2273 16.0818 16.5364 15.8182 17 15.8182H23.9545C24.4182 15.8182 24.7273 16.0818 24.7273 16.4773C24.7273 16.8727 24.4182 17.1364 23.9545 17.1364H17C16.5364 17.1364 16.2273 16.8727 16.2273 16.4773ZM26.2727 16.4773C26.2727 16.0818 26.5818 15.8182 27.0455 15.8182H30.1364C30.6 15.8182 30.9091 16.0818 30.9091 16.4773C30.9091 16.8727 30.6 17.1364 30.1364 17.1364H27.0455C26.5818 17.1364 26.2727 16.8727 26.2727 16.4773ZM11.5909 1.97727H22.4091C27.1227 1.97727 30.9091 5.20682 30.9091 9.22727C30.9091 9.62272 30.6 9.88636 30.1364 9.88636H3.86364C3.4 9.88636 3.09091 9.62272 3.09091 9.22727C3.09091 5.20682 6.87727 1.97727 11.5909 1.97727ZM1.93182 11.2045H3.86364H30.1364H32.0682C32.3 11.2045 32.4545 11.3364 32.4545 11.5341C32.4545 11.7318 32.3 11.8636 32.0682 11.8636H30.9091H3.09091H1.93182C1.7 11.8636 1.54545 11.7318 1.54545 11.5341C1.54545 11.3364 1.7 11.2045 1.93182 11.2045ZM1.93182 18.4545H3.86364H10.4318H13.9091H17H23.9545H27.0455H30.1364H32.0682C32.3 18.4545 32.4545 18.5864 32.4545 18.7841C32.4545 18.9818 32.3 19.1136 32.0682 19.1136H31.2955H2.70455H1.93182C1.7 19.1136 1.54545 18.9818 1.54545 18.7841C1.54545 18.5864 1.7 18.4545 1.93182 18.4545ZM27.8182 27.0227H6.18182C4.48182 27.0227 3.09091 25.8364 3.09091 24.3864C3.09091 23.9909 3.4 23.7273 3.86364 23.7273H30.1364C30.6 23.7273 30.9091 23.9909 30.9091 24.3864C30.9091 25.8364 29.5182 27.0227 27.8182 27.0227ZM31.2955 22.4091H30.1364H3.86364H2.70455C2.08636 22.4091 1.54545 21.9477 1.54545 21.4205C1.54545 20.8932 2.08636 20.4318 2.70455 20.4318H31.2955C31.9136 20.4318 32.4545 20.8932 32.4545 21.4205C32.4545 21.9477 31.9136 22.4091 31.2955 22.4091Z" fill="black"/>
<path d="M14.6819 5.27274C15.1087 5.27274 15.4546 4.97766 15.4546 4.61365C15.4546 4.24964 15.1087 3.95456 14.6819 3.95456C14.2551 3.95456 13.9092 4.24964 13.9092 4.61365C13.9092 4.97766 14.2551 5.27274 14.6819 5.27274Z" fill="black"/>
<path d="M10.0454 5.27274C10.4722 5.27274 10.8182 4.97766 10.8182 4.61365C10.8182 4.24964 10.4722 3.95456 10.0454 3.95456C9.61867 3.95456 9.27271 4.24964 9.27271 4.61365C9.27271 4.97766 9.61867 5.27274 10.0454 5.27274Z" fill="black"/>
<path d="M7.72732 7.90909C8.15408 7.90909 8.50004 7.61401 8.50004 7.25C8.50004 6.886 8.15408 6.59091 7.72732 6.59091C7.30055 6.59091 6.95459 6.886 6.95459 7.25C6.95459 7.61401 7.30055 7.90909 7.72732 7.90909Z" fill="black"/>
<path d="M12.3635 7.90909C12.7903 7.90909 13.1363 7.61401 13.1363 7.25C13.1363 6.886 12.7903 6.59091 12.3635 6.59091C11.9368 6.59091 11.5908 6.886 11.5908 7.25C11.5908 7.61401 11.9368 7.90909 12.3635 7.90909Z" fill="black"/>
<path d="M23.9546 5.27274C24.3814 5.27274 24.7273 4.97766 24.7273 4.61365C24.7273 4.24964 24.3814 3.95456 23.9546 3.95456C23.5278 3.95456 23.1819 4.24964 23.1819 4.61365C23.1819 4.97766 23.5278 5.27274 23.9546 5.27274Z" fill="black"/>
<path d="M19.3181 5.27274C19.7449 5.27274 20.0909 4.97766 20.0909 4.61365C20.0909 4.24964 19.7449 3.95456 19.3181 3.95456C18.8914 3.95456 18.5454 4.24964 18.5454 4.61365C18.5454 4.97766 18.8914 5.27274 19.3181 5.27274Z" fill="black"/>
<path d="M21.6363 7.90909C22.063 7.90909 22.409 7.61401 22.409 7.25C22.409 6.886 22.063 6.59091 21.6363 6.59091C21.2095 6.59091 20.8635 6.886 20.8635 7.25C20.8635 7.61401 21.2095 7.90909 21.6363 7.90909Z" fill="black"/>
<path d="M26.2727 7.90909C26.6995 7.90909 27.0455 7.61401 27.0455 7.25C27.0455 6.886 26.6995 6.59091 26.2727 6.59091C25.846 6.59091 25.5 6.886 25.5 7.25C25.5 7.61401 25.846 7.90909 26.2727 7.90909Z" fill="black"/>
</g>
<defs>
<clipPath id="clip0_453_2800">
<rect width="34" height="29" fill="white"/>
</clipPath>
</defs>
</svg>
