<svg width="31" height="20" viewBox="0 0 31 20" fill="none" xmlns="http://www.w3.org/2000/svg">
<path d="M30.2812 1.8125H15.8021C16.1284 1.60288 17.0728 0.126512 15.9375 0H13.8125C11.9196 0 9.33029 0 7.4375 0C7.2966 0 7.16148 0.0477399 7.06185 0.132717C6.96222 0.217695 6.90625 0.332949 6.90625 0.453125C6.90896 1.08093 6.28857 1.25679 6.02528 1.8125H3.71875C3.4128 1.8158 3.11439 1.89391 2.85893 2.03754C2.60346 2.18117 2.40167 2.3843 2.27751 2.62282C2.15335 2.86135 2.11202 3.12525 2.15844 3.3832C2.20485 3.64116 2.33706 3.88234 2.53938 4.07812C2.33706 4.27391 2.20485 4.51509 2.15844 4.77305C2.11202 5.031 2.15335 5.2949 2.27751 5.53342C2.40167 5.77195 2.60346 5.97508 2.85893 6.11871C3.11439 6.26234 3.4128 6.34045 3.71875 6.34375H5.90219C5.82062 6.66296 5.83274 6.99441 5.93746 7.30867C6.04219 7.62292 6.23628 7.91026 6.5025 8.14515C6.6293 8.24069 6.73082 8.35814 6.80035 8.4897C6.86988 8.62126 6.90582 8.76393 6.90579 8.90824C6.90575 9.05255 6.86974 9.1952 6.80015 9.32674C6.73056 9.45827 6.62897 9.57568 6.50213 9.67118C6.29239 9.848 6.12613 10.0587 6.01308 10.2911C5.90003 10.5234 5.84246 10.7726 5.84375 11.0241C5.85347 11.9325 6.37787 12.1651 6.77524 12.6875H0.53125C0.390354 12.6875 0.255228 12.7352 0.1556 12.8202C0.0559708 12.9052 0 13.0204 0 13.1406C0.00168635 14.1432 0.435778 15.1102 1.21955 15.8573C2.00333 16.6045 3.08199 17.0796 4.25 17.192V17.6719C4.25046 18.0323 4.41853 18.3778 4.71731 18.6327C5.0161 18.8875 5.4212 19.0309 5.84375 19.0312H16.4688C16.8913 19.0309 17.2964 18.8875 17.5952 18.6327C17.894 18.3778 18.062 18.0323 18.0625 17.6719V17.192C19.2305 17.0796 20.3092 16.6045 21.0929 15.8573C21.8767 15.1102 22.3108 14.1432 22.3125 13.1406C22.3124 13.0794 22.2977 13.0187 22.2694 12.9624C22.2411 12.9061 22.1997 12.8553 22.1478 12.813C22.0959 12.7706 22.0344 12.7377 21.9672 12.7161C21.9 12.6946 21.8283 12.6848 21.7565 12.6875C22.1149 12.2933 22.3104 11.8092 22.3125 11.3104V10.4219C22.3125 10.3017 22.2565 10.1864 22.1569 10.1015C22.0573 10.0165 21.9221 9.96875 21.7812 9.96875H20.7395C20.3213 9.96969 19.9091 10.0545 19.5364 10.2164C19.1636 10.3782 18.8407 10.6126 18.5938 10.9005C18.3043 10.574 17.921 10.3166 17.4809 10.1534C17.0408 9.9902 16.5587 9.92659 16.0814 9.96875C16.3684 9.60117 16.4981 9.16044 16.4485 8.72083C16.399 8.28122 16.1733 7.86961 15.8095 7.55536C15.6148 7.40677 15.4825 7.20784 15.4329 6.98903C15.3833 6.77021 15.4191 6.54355 15.5349 6.34375H30.2812C30.4221 6.34375 30.5573 6.29601 30.6569 6.21103C30.7565 6.12606 30.8125 6.0108 30.8125 5.89062V2.26562C30.8125 2.14545 30.7565 2.03019 30.6569 1.94522C30.5573 1.86024 30.4221 1.8125 30.2812 1.8125ZM29.75 3.625H20.1875V2.71875H29.75V3.625ZM15.8094 3.32807C15.6064 3.16639 15.4712 2.95231 15.4248 2.71875H19.125V3.625H16.0856C15.9949 3.51498 15.8992 3.41733 15.8094 3.32807ZM15.0029 1.21492C14.5857 1.5751 14.3516 2.06094 14.3514 2.56724C14.3511 3.07354 14.5846 3.55956 15.0014 3.92007C15.1199 4.02787 15.2221 4.14792 15.3056 4.27741C15.4053 4.47387 15.4297 4.69218 15.3753 4.90117C15.3209 5.11017 15.1905 5.29917 15.0028 5.44122C14.5853 5.80108 14.3511 6.28691 14.3511 6.79318C14.3511 7.29945 14.5853 7.78528 15.0028 8.14515C15.1296 8.24069 15.2311 8.35813 15.3006 8.48969C15.3701 8.62125 15.4061 8.76391 15.406 8.90821C15.406 9.05252 15.37 9.19517 15.3004 9.3267C15.2308 9.45823 15.1292 9.57564 15.0024 9.67114C14.7926 9.84795 14.6263 10.0587 14.5132 10.291C14.4001 10.5233 14.3425 10.7726 14.3438 11.0241C14.3541 11.9327 14.8771 12.1671 15.2788 12.6875H14.2853C14.1656 12.0025 13.2899 11.7311 13.2812 11.0242C13.2818 10.8798 13.3181 10.7372 13.3876 10.6056C13.4572 10.4741 13.5585 10.3565 13.685 10.2606C13.8938 10.0832 14.0596 9.87245 14.1726 9.64034C14.2857 9.40822 14.3439 9.15934 14.3439 8.90798C14.3439 8.65663 14.2857 8.40775 14.1726 8.17563C14.0596 7.94352 13.8938 7.73274 13.685 7.55541C13.5583 7.46004 13.4568 7.34276 13.3872 7.21137C13.3177 7.07998 13.2818 6.93747 13.2818 6.79332C13.2818 6.64916 13.3177 6.50666 13.3872 6.37526C13.4568 6.24387 13.5583 6.1266 13.685 6.03123C13.894 5.85416 14.0598 5.64359 14.173 5.41164C14.2861 5.17969 14.3444 4.93093 14.3444 4.67969C14.3444 4.42846 14.2861 4.1797 14.173 3.94775C14.0598 3.7158 13.894 3.50522 13.685 3.32816C13.5587 3.23259 13.4574 3.11535 13.3878 2.98411C13.3182 2.85287 13.2819 2.71058 13.2812 2.56655C13.2895 1.86071 14.1655 1.58943 14.2853 0.90625H15.2783C15.1982 1.01634 15.1059 1.11969 15.0029 1.21492ZM10.0353 12.6875C9.91562 12.0025 9.03991 11.7311 9.03125 11.0242C9.03182 10.8798 9.06807 10.7372 9.13765 10.6056C9.20722 10.4741 9.30854 10.3565 9.435 10.2606C9.64385 10.0832 9.80957 9.87245 9.92264 9.64034C10.0357 9.40822 10.0939 9.15934 10.0939 8.90798C10.0939 8.65663 10.0357 8.40775 9.92264 8.17563C9.80957 7.94352 9.64385 7.73274 9.435 7.55541C9.30826 7.46004 9.20676 7.34276 9.13724 7.21137C9.06771 7.07998 9.03176 6.93747 9.03176 6.79332C9.03176 6.64916 9.06771 6.50666 9.13724 6.37526C9.20676 6.24387 9.30826 6.1266 9.435 6.03123C9.64396 5.85416 9.8098 5.64359 9.92297 5.41164C10.0361 5.17969 10.0944 4.93093 10.0944 4.67969C10.0944 4.42846 10.0361 4.1797 9.92297 3.94775C9.8098 3.7158 9.64396 3.50522 9.435 3.32816C9.30866 3.23259 9.2074 3.11535 9.13782 2.98411C9.06825 2.85287 9.03193 2.71058 9.03125 2.56655C9.03954 1.86071 9.91551 1.58943 10.0353 0.90625H11.0248C10.946 1.01633 10.855 1.11969 10.7531 1.21492C10.3353 1.57447 10.1009 2.06024 10.1009 2.56649C10.101 3.07273 10.3355 3.55846 10.7534 3.91795C10.8801 4.01325 10.9816 4.13046 11.0511 4.2618C11.1206 4.39313 11.1565 4.53557 11.1565 4.67966C11.1564 4.82375 11.1204 4.96619 11.0509 5.0975C10.9813 5.22881 10.8798 5.346 10.7531 5.44126C10.5442 5.61845 10.3784 5.82911 10.2653 6.06113C10.1522 6.29315 10.094 6.54195 10.094 6.79323C10.094 7.04451 10.1522 7.29331 10.2653 7.52533C10.3784 7.75734 10.5442 7.968 10.7531 8.14519C10.8799 8.2407 10.9815 8.35813 11.0511 8.48967C11.1206 8.62122 11.1566 8.76388 11.1566 8.90819C11.1566 9.0525 11.1206 9.19516 11.0511 9.3267C10.9815 9.45825 10.8799 9.57567 10.7531 9.67118C10.3352 10.0313 10.1008 10.5175 10.1008 11.0241C10.1008 11.5308 10.3352 12.017 10.7531 12.3771C10.8553 12.4729 10.9466 12.5769 11.0256 12.6875H10.0353ZM12.1603 12.6875C12.0406 12.0025 11.1649 11.7311 11.1562 11.0242C11.1568 10.8798 11.1931 10.7372 11.2626 10.6056C11.3322 10.4741 11.4335 10.3565 11.56 10.2606C11.7688 10.0832 11.9346 9.87245 12.0476 9.64034C12.1607 9.40822 12.2189 9.15934 12.2189 8.90798C12.2189 8.65663 12.1607 8.40775 12.0476 8.17563C11.9346 7.94352 11.7688 7.73274 11.56 7.55541C11.4333 7.46004 11.3318 7.34276 11.2622 7.21137C11.1927 7.07998 11.1568 6.93747 11.1568 6.79332C11.1568 6.64916 11.1927 6.50666 11.2622 6.37526C11.3318 6.24387 11.4333 6.1266 11.56 6.03123C11.769 5.85416 11.9348 5.64359 12.048 5.41164C12.1611 5.17969 12.2194 4.93093 12.2194 4.67969C12.2194 4.42846 12.1611 4.1797 12.048 3.94775C11.9348 3.7158 11.769 3.50522 11.56 3.32816C11.4337 3.23259 11.3324 3.11535 11.2628 2.98411C11.1932 2.85287 11.1569 2.71058 11.1562 2.56655C11.1645 1.86071 12.0405 1.58943 12.1603 0.90625H13.1498C13.071 1.01633 12.98 1.11969 12.8781 1.21492C12.4603 1.57447 12.2259 2.06024 12.2259 2.56649C12.226 3.07273 12.4605 3.55846 12.8784 3.91795C13.0051 4.01325 13.1066 4.13046 13.1761 4.2618C13.2456 4.39313 13.2815 4.53557 13.2815 4.67966C13.2814 4.82375 13.2454 4.96619 13.1759 5.0975C13.1063 5.22881 13.0048 5.346 12.8781 5.44126C12.6692 5.61845 12.5034 5.82911 12.3903 6.06113C12.2772 6.29315 12.219 6.54195 12.219 6.79323C12.219 7.04451 12.2772 7.29331 12.3903 7.52533C12.5034 7.75734 12.6692 7.968 12.8781 8.14519C13.0049 8.2407 13.1065 8.35813 13.1761 8.48967C13.2456 8.62122 13.2816 8.76388 13.2816 8.90819C13.2816 9.0525 13.2456 9.19516 13.1761 9.3267C13.1065 9.45825 13.0049 9.57567 12.8781 9.67118C12.4602 10.0313 12.2258 10.5175 12.2258 11.0241C12.2258 11.5308 12.4602 12.017 12.8781 12.3771C12.9803 12.4729 13.0716 12.5769 13.1506 12.6875H12.1603ZM3.71875 2.71875H5.8497C5.87701 3.04426 6.00707 3.35741 6.22609 3.625H3.71875C3.57785 3.625 3.44273 3.57726 3.3431 3.49228C3.24347 3.40731 3.1875 3.29205 3.1875 3.17188C3.1875 3.0517 3.24347 2.93644 3.3431 2.85147C3.44273 2.76649 3.57785 2.71875 3.71875 2.71875ZM3.1875 4.98438C3.18768 4.86425 3.24371 4.74908 3.3433 4.66414C3.44289 4.5792 3.57791 4.53141 3.71875 4.53125H6.88824C6.91937 4.69751 6.90069 4.86777 6.83396 5.02622C6.76722 5.18467 6.65459 5.32615 6.50654 5.4375H3.71875C3.57791 5.43734 3.44289 5.38955 3.3433 5.30461C3.24371 5.21967 3.18768 5.1045 3.1875 4.98438ZM7.31 11.7877C7.18388 11.6917 7.08296 11.5741 7.01386 11.4425C6.94476 11.3109 6.90904 11.1683 6.90904 11.0242C6.90904 10.88 6.94476 10.7374 7.01386 10.6059C7.08296 10.4743 7.18388 10.3566 7.31 10.2607C7.51882 10.0833 7.68451 9.8725 7.79756 9.64038C7.9106 9.40826 7.96878 9.15937 7.96875 8.90802C7.96872 8.65666 7.91049 8.40779 7.79738 8.17569C7.68428 7.94358 7.51854 7.73282 7.30968 7.5555C7.08368 7.38447 6.94317 7.14604 6.91706 6.88931C6.89096 6.63257 6.98127 6.37707 7.16938 6.17541C7.40563 6.00054 7.59752 5.78636 7.73329 5.54599C7.86906 5.30563 7.94586 5.04414 7.95896 4.77757C7.97207 4.511 7.92121 4.24495 7.80951 3.99573C7.69781 3.74652 7.52762 3.51938 7.30936 3.32825C7.14992 3.20573 7.03127 3.04945 6.96542 2.87523C6.89956 2.70102 6.88885 2.51506 6.93435 2.33618C7.12975 1.78105 7.75035 1.58399 7.91015 0.906431H8.89961C8.82085 1.01651 8.72987 1.11987 8.62793 1.2151C8.2101 1.57465 7.97571 2.06042 7.97577 2.56667C7.97583 3.07291 8.21034 3.55865 8.62824 3.91813C8.75495 4.01343 8.85642 4.13064 8.92591 4.26198C8.9954 4.39331 9.03133 4.53576 9.0313 4.67985C9.03127 4.82394 8.99528 4.96637 8.92573 5.09768C8.85619 5.22899 8.75467 5.34618 8.62793 5.44144C8.41903 5.61863 8.25327 5.82929 8.14015 6.06131C8.02703 6.29333 7.9688 6.54213 7.9688 6.79341C7.9688 7.04469 8.02703 7.29349 8.14015 7.52551C8.25327 7.75753 8.41903 7.96819 8.62793 8.14538C8.75476 8.24088 8.85633 8.35831 8.9259 8.48985C8.99547 8.6214 9.03145 8.76406 9.03145 8.90837C9.03145 9.05268 8.99547 9.19534 8.9259 9.32689C8.85633 9.45843 8.75476 9.57585 8.62793 9.67136C8.21003 10.0314 7.97562 10.5176 7.97562 11.0243C7.97562 11.531 8.21003 12.0172 8.62793 12.3772C8.73015 12.4731 8.82141 12.577 8.90046 12.6877H7.91031C7.80389 12.3488 7.59718 12.0389 7.31 11.7877ZM17 17.6719C16.9998 17.792 16.9438 17.9072 16.8442 17.9921C16.7446 18.0771 16.6096 18.1248 16.4688 18.125H5.84375C5.70291 18.1248 5.56789 18.0771 5.4683 17.9921C5.36871 17.9072 5.31268 17.792 5.3125 17.6719V17.2188H17V17.6719ZM17.5312 16.3125H4.78125C3.88731 16.3115 3.02359 16.0363 2.34781 15.5372C1.67203 15.0381 1.22927 14.3483 1.10038 13.5938H21.2121C21.0832 14.3483 20.6405 15.0381 19.9647 15.5372C19.2889 16.0363 18.4252 16.3115 17.5312 16.3125ZM20.7395 10.875H21.25V11.3104C21.2495 11.6755 21.0793 12.0255 20.7766 12.2837C20.4739 12.5419 20.0635 12.6871 19.6355 12.6875H19.125V12.2521C19.1255 11.887 19.2957 11.537 19.5984 11.2788C19.9011 11.0206 20.3115 10.8754 20.7395 10.875ZM18.0625 12.2521V12.6875H17.552C17.124 12.6871 16.7136 12.5419 16.4109 12.2837C16.1082 12.0255 15.938 11.6755 15.9375 11.3104V10.875H16.448C16.876 10.8754 17.2864 11.0206 17.5891 11.2788C17.8918 11.537 18.062 11.887 18.0625 12.2521ZM16.3002 5.40827C16.4349 5.131 16.4906 4.83044 16.4628 4.53125H19.125V5.4375H16.289C16.2934 5.4288 16.2958 5.41715 16.3002 5.40827ZM29.75 5.4375H20.1875V4.53125H29.75V5.4375Z" fill="black"/>
</svg>
