<svg width="34" height="29" viewBox="0 0 34 29" fill="none" xmlns="http://www.w3.org/2000/svg">
<path d="M32.5689 12.4713C32.574 12.4025 32.5811 12.3343 32.5811 12.2641V9.55169C32.5811 9.36106 32.5624 9.17594 32.5354 8.99437C32.5334 8.98156 32.5352 8.96887 32.5322 8.95611C32.5312 8.95208 32.5288 8.94945 32.5277 8.9455C32.3953 8.13068 32.004 7.43183 31.4343 7.0489L21.9508 0.670214C20.5414 -0.277871 18.8802 -0.221248 17.508 0.823164L8.96534 7.32062C6.66998 6.95326 5.09347 7.29438 4.27923 8.33534C3.71656 9.05486 3.74887 9.84723 3.7499 9.8569V11.4559L0.905409 13.3613C0.51821 13.6209 0.271613 14.1447 0.261779 14.7282C0.251946 15.312 0.480665 15.8506 0.858669 16.1334L3.90044 18.4097C3.75122 18.8068 3.55331 19.5921 3.77161 20.6314C4.26608 22.9854 6.52287 25.1802 10.4794 27.1555C12.9385 28.3829 14.9723 28.9974 16.5649 28.9974C17.686 28.9974 18.5888 28.6926 19.2665 28.0825C20.1019 27.3305 20.3312 26.3268 20.3936 25.8701L30.3069 20.9315C31.6672 20.2537 32.5811 18.4822 32.5811 16.5225C32.5811 16.4743 32.5737 16.4284 32.5608 16.3866L32.9952 16.161C33.3629 15.9701 33.6312 15.5454 33.7129 15.0248C33.7946 14.5044 33.6773 13.9689 33.3989 13.593L32.5689 12.4713ZM32.058 9.55169V12.2641C32.058 12.8465 31.7834 13.3623 31.3746 13.5474L20.006 18.6918V18.9462C20.006 18.9566 19.9966 19.9858 19.1775 20.7771C18.1074 21.8112 15.6242 22.4848 9.86974 19.8235C8.21329 19.0574 6.68045 17.9943 5.43725 16.7493C4.70819 16.0191 4.27297 14.8314 4.27297 13.5729L4.27272 11.0305C4.92821 12.7977 6.65108 14.7507 10.6302 16.257C13.1122 17.1964 14.9688 17.5441 16.3578 17.5441C18.0705 17.5441 19.0719 17.0155 19.6565 16.4162C20.3057 15.7505 20.4918 14.9688 20.5451 14.5673L32.0571 9.53516C32.0572 9.54075 32.058 9.5461 32.058 9.55169ZM7.32779 7.88512C7.80272 7.88512 8.3521 7.93069 8.98705 8.03634L9.07236 8.0505L17.7644 1.43911C18.9854 0.510013 20.4632 0.45926 21.7179 1.30342L31.2013 7.6821C31.5637 7.92571 31.8285 8.3411 31.9613 8.83415L20.2244 13.9645L20.0468 14.0453L20.0433 14.2976C20.0428 14.3329 20.0235 15.166 19.3231 15.8703C18.353 16.8453 16.0822 17.5862 10.7712 15.5761C5.62217 13.6269 4.47958 11.0282 4.44681 9.15712C4.49919 9.05093 4.56521 8.94028 4.65417 8.82975C5.02885 8.36399 5.78831 7.88512 7.32779 7.88512ZM30.1261 20.2679L19.9014 25.3615L19.8941 25.597C19.8938 25.608 19.8496 26.7084 18.9766 27.4942C17.95 28.4184 15.6739 28.9943 10.6605 26.4919C5.95726 24.1441 4.59453 21.9165 4.27961 20.4609C4.10258 19.6426 4.25112 19.0416 4.35743 18.7517L12.6569 24.9627C13.168 25.3453 13.7342 25.539 14.3033 25.539C14.7154 25.539 15.129 25.4375 15.5241 25.2324L32.0543 16.6495C32.0158 18.2633 31.252 19.7071 30.1261 20.2679ZM33.2012 14.878C33.1557 15.1677 33.0123 15.3945 32.8077 15.5009L15.3366 24.5722C14.5405 24.9859 13.6562 24.9023 12.9103 24.344L1.11203 15.5147C0.901578 15.3572 0.779237 15.0693 0.784729 14.7444C0.79022 14.4195 0.922139 14.1395 1.13758 13.9952L3.7499 12.245V13.5729C3.7499 15.0544 4.26429 16.4545 5.12591 17.3176C6.43015 18.6237 7.96925 19.692 9.70041 20.4926C12.4514 21.7649 14.7078 22.4016 16.4529 22.4016C17.7455 22.4016 18.7576 22.0522 19.4817 21.3523C20.2563 20.6038 20.4581 19.6606 20.5107 19.209L31.5407 14.2179C31.9177 14.0472 32.2177 13.6901 32.3973 13.2392L33.0291 14.0929C33.184 14.3021 33.2468 14.5883 33.2012 14.878Z" fill="black"/>
</svg>
